<svg width="345" height="114" viewBox="0 0 345 114" fill="none" xmlns="http://www.w3.org/2000/svg">
<path d="M112.895 89V23.6875H132.934C136.273 23.6875 138.797 24.4544 140.504 25.9883C142.211 27.4974 143.349 29.625 143.918 32.3711C144.512 35.0924 144.809 38.2962 144.809 41.9824C144.809 45.5449 144.351 48.39 143.436 50.5176C142.545 52.6452 140.85 54.1172 138.352 54.9336C140.405 55.3542 141.84 56.3809 142.656 58.0137C143.497 59.6217 143.918 61.7122 143.918 64.2852V89H131.041V63.4316C131.041 61.5267 130.645 60.3516 129.854 59.9062C129.087 59.4362 127.837 59.2012 126.105 59.2012V89H112.895ZM126.18 47.8828H129.334C131.14 47.8828 132.043 45.916 132.043 41.9824C132.043 39.4342 131.845 37.7643 131.449 36.9727C131.053 36.181 130.311 35.7852 129.223 35.7852H126.18V47.8828ZM164.477 89.5938C160.518 89.5938 157.364 88.8516 155.014 87.3672C152.663 85.8828 150.981 83.7428 149.967 80.9473C148.952 78.1517 148.445 74.7871 148.445 70.8535V48.4766C148.445 43.306 149.93 39.3971 152.898 36.75C155.867 34.0781 159.949 32.7422 165.145 32.7422C175.832 32.7422 181.176 37.987 181.176 48.4766V52.5215C181.176 57.4199 181.126 60.7103 181.027 62.3926H161.73V73.1543C161.73 74.1439 161.792 75.1211 161.916 76.0859C162.04 77.026 162.312 77.8053 162.732 78.4238C163.178 79.0423 163.883 79.3516 164.848 79.3516C166.233 79.3516 167.099 78.7578 167.445 77.5703C167.792 76.3581 167.965 74.7871 167.965 72.8574V67.5137H181.176V70.668C181.176 74.8242 180.656 78.3125 179.617 81.1328C178.603 83.9284 176.871 86.0436 174.422 87.4785C171.997 88.8887 168.682 89.5938 164.477 89.5938ZM161.656 55.7871H167.965V48.291C167.965 46.2871 167.717 44.8522 167.223 43.9863C166.728 43.0957 165.986 42.6504 164.996 42.6504C163.932 42.6504 163.104 43.071 162.51 43.9121C161.941 44.7533 161.656 46.2129 161.656 48.291V55.7871ZM186 89V33.3359H199.285V40.4238C199.78 38.2962 200.695 36.4902 202.031 35.0059C203.392 33.4967 205.272 32.7422 207.672 32.7422C211.531 32.7422 214.327 33.9297 216.059 36.3047C217.815 38.6797 218.693 41.9329 218.693 46.0645V89H205.594V47.4375C205.594 46.349 205.371 45.347 204.926 44.4316C204.48 43.4915 203.714 43.0215 202.625 43.0215C201.611 43.0215 200.856 43.3802 200.361 44.0977C199.891 44.7904 199.594 45.6686 199.471 46.7324C199.347 47.7715 199.285 48.8105 199.285 49.8496V89H186ZM235.355 89.5938C231.768 89.5938 229.344 88.8392 228.082 87.3301C226.845 85.7962 226.227 83.4583 226.227 80.3164V45.6191H222.479V35.4883H226.227V23.6875H239.141V35.4883H242.889V45.6191H239.141V77.1992C239.141 78.1146 239.289 78.7578 239.586 79.1289C239.883 79.5 240.452 79.6855 241.293 79.6855C241.887 79.6855 242.419 79.6361 242.889 79.5371V88.5918C242.592 88.6908 241.664 88.8763 240.105 89.1484C238.547 89.4453 236.964 89.5938 235.355 89.5938ZM247.379 89V23.6875H264.635C268.247 23.6875 271.104 24.4915 273.207 26.0996C275.335 27.7077 276.856 29.9961 277.771 32.9648C278.687 35.9336 279.145 39.4714 279.145 43.5781C279.145 47.5365 278.761 50.9876 277.994 53.9316C277.227 56.8509 275.854 59.1146 273.875 60.7227C271.921 62.3307 269.137 63.1348 265.525 63.1348H260.219V89H247.379ZM260.219 51.4082H260.961C263.385 51.4082 264.87 50.7279 265.414 49.3672C265.958 48.0065 266.23 46.0026 266.23 43.3555C266.23 40.8815 265.958 38.9766 265.414 37.6406C264.895 36.2799 263.645 35.5996 261.666 35.5996H260.219V51.4082ZM283.078 89V33.3359H296.586V39.5332C297.229 37.3809 298.367 35.6986 300 34.4863C301.633 33.2741 303.686 32.668 306.16 32.668V43.7637C305.072 43.7637 303.773 43.8874 302.264 44.1348C300.755 44.3574 299.431 44.679 298.293 45.0996C297.155 45.4954 296.586 45.9408 296.586 46.4355V89H283.078ZM325.605 89.5938C314.522 89.5938 308.98 83.8418 308.98 72.3379V49.998C308.98 44.7533 310.452 40.5723 313.396 37.4551C316.34 34.3132 320.41 32.7422 325.605 32.7422C330.826 32.7422 334.908 34.3132 337.852 37.4551C340.796 40.5723 342.268 44.7533 342.268 49.998V72.3379C342.268 83.8418 336.714 89.5938 325.605 89.5938ZM325.605 79.3516C326.719 79.3516 327.51 78.9557 327.98 78.1641C328.475 77.3477 328.723 76.321 328.723 75.084V47.8828C328.723 44.6419 327.684 43.0215 325.605 43.0215C323.527 43.0215 322.488 44.6419 322.488 47.8828V75.084C322.488 76.321 322.723 77.3477 323.193 78.1641C323.688 78.9557 324.492 79.3516 325.605 79.3516Z" fill="white"/>
<g clip-path="url(#clip0_1_14)">
<path d="M37.8366 14.2508C40.8708 11.8694 45.3708 11.8754 48.3974 14.2648L82.3023 41.0317C84.6512 42.8861 86 45.5741 86 48.4007V89L59.125 88.9975V74.1875C59.125 66.1927 52.23 59.6772 43.6045 59.3852L43 59.375C34.0944 59.375 26.875 66.0068 26.875 74.1875V88.9975L0 89V48.4136C0 45.577 1.35822 42.8807 3.7213 41.026L37.8366 14.2508ZM43 32.2188C37.0629 32.2188 32.25 36.6399 32.25 42.0938C32.25 47.5476 37.0629 51.9688 43 51.9688C48.9371 51.9688 53.75 47.5476 53.75 42.0938C53.75 36.6399 48.9371 32.2188 43 32.2188Z" fill="#4831D4"/>
</g>
<defs>
<clipPath id="clip0_1_14">
<rect width="86" height="79" fill="white" transform="translate(0 10)"/>
</clipPath>
</defs>
</svg>
